Coordinates
version=1
nRows=14
nColumns=36
inDegrees=yes

Units are S.I. units (second, meters, Newtons, ...)
If the header above contains a line with 'inDegrees', this indicates whether rotational values are in degrees (yes) or radians (no).

endheader
time	pelvis_tilt	pelvis_list	pelvis_rotation	pelvis_tx	pelvis_ty	pelvis_tz	hip_flexion_r	hip_adduction_r	hip_rotation_r	knee_angle_r	knee_angle_r_beta	ankle_angle_r	subtalar_angle_r	mtp_angle_r	hip_flexion_l	hip_adduction_l	hip_rotation_l	knee_angle_l	knee_angle_l_beta	ankle_angle_l	subtalar_angle_l	mtp_angle_l	lumbar_extension	lumbar_bending	lumbar_rotation	arm_flex_r	arm_add_r	arm_rot_r	elbow_flex_r	pro_sup_r	arm_flex_l	arm_add_l	arm_rot_l	elbow_flex_l	pro_sup_l
      1.80000000	     -5.51253374	      4.25212943	     -1.36935153	      0.76342454	      0.91072951	      0.14249765	      3.92523267	      4.21156115	      2.56591082	      6.67841035	      0.11656025	      3.27269588	    -11.72083067	     -7.49997826	     20.23757255	      3.85337066	      6.44629619	     69.30882370	      1.20966717	     17.10472603	    -23.29789777	     -7.49997826	      2.20845754	     -1.85043741	     -5.95212125	     33.89522765	      5.12957763	     69.81490187	    121.44972242	    102.23911383	     39.49754906	      0.83766234	     59.85388684	    123.15030353	    108.46302046
      1.81666670	     -6.10708559	      4.49611431	     -1.43002845	      0.76405496	      0.91007893	      0.14294076	      4.68309816	      4.05217056	      2.21314745	      6.93782763	      0.12108794	      3.33320321	    -11.43358434	     -7.49998068	     20.30156169	      4.12019175	      6.08898407	     69.95065236	      1.22086920	     17.55941208	    -23.51714401	     -7.49998068	      3.14391709	     -2.16559522	     -5.90888019	     33.63698540	      5.30672508	     69.99787732	    121.69647937	    100.56114159	     39.44008694	      0.75732400	     60.12749304	    123.45504526	    106.65900130
      1.83333330	     -6.36528972	      4.71619956	     -1.42755602	      0.76440175	      0.91033716	      0.14324414	      5.15798183	      3.90491347	      2.35070316	      7.47591791	      0.13047938	      3.23683130	    -12.10275521	     -7.49998456	     19.99405871	      4.35766629	      5.70231642	     70.23905618	      1.22590279	     18.22856438	    -23.69120322	     -7.49998456	      3.54228713	     -2.43330248	     -6.23157268	     33.66308343	      5.59049767	     70.24155587	    120.89536712	    101.03384334	     39.41855373	      0.40889711	     59.91067987	    123.66177234	    107.07314069
      1.85000000	     -6.87653199	      4.84972720	     -1.37982300	      0.76496384	      0.91249598	      0.14370197	      5.98780058	      3.80620452	      2.08379315	      8.19674780	      0.14306024	      3.71096888	    -12.03732718	     -7.49998530	     19.88746532	      4.46959768	      5.31427202	     70.21478262	      1.22547914	     18.91204983	    -23.58408837	     -7.49998530	      4.22572757	     -2.64062673	     -6.35295523	     33.25249780	      5.57195030	     70.17893547	    120.51254210	    101.52087476	     39.48052263	      0.15077303	     60.16778316	    123.45609192	    107.55844910
      1.86666670	     -7.18889949	      4.89531750	     -1.32802683	      0.76547962	      0.91242555	      0.14366197	      6.47725484	      3.78238224	      1.75426064	      8.64442906	      0.15087375	      3.92045358	    -12.25672437	     -7.49998662	     19.90518729	      4.44853088	      4.91157688	     70.43941532	      1.22939972	     18.76691862	    -23.85901934	     -7.49998662	      4.72648592	     -2.70311256	     -6.32383830	     32.83129138	      5.54843428	     69.86688952	    120.35427467	    102.43621207	     39.07273475	     -0.08924769	     60.17639215	    123.31748311	    108.43714284
      1.88333330	     -7.61224989	      4.80840287	     -1.25887539	      0.76567462	      0.91381868	      0.14338806	      7.13957213	      3.86406015	      1.28880896	      9.12979603	      0.15934500	      4.40642857	    -12.12337965	     -7.49998875	     20.02242033	      4.29245455	      4.66043564	     70.41939668	      1.22905033	     18.99963035	    -23.80690778	     -7.49998875	      5.12486682	     -2.62201179	     -6.11620692	     32.64131597	      5.38482621	     70.04545916	    120.39634388	     99.76979200	     38.90863379	     -0.06264189	     61.04974454	    123.43501757	    105.42925185
      1.90000000	     -7.69657028	      4.75632919	     -1.27551203	      0.76608687	      0.91399121	      0.14317219	      7.39773648	      3.90330429	      1.17041586	      9.44503419	      0.16484694	      4.69066892	    -12.47183883	     -7.49998971	     19.67560364	      4.17926056	      4.37495978	     70.03963730	      1.22242228	     18.94071189	    -23.82230825	     -7.49998971	      5.11813464	     -2.51130362	     -5.77310581	     32.85286645	      5.42731948	     70.18491257	    120.24202574	     99.18769374	     38.77183213	      0.10739415	     61.63576822	    123.48449447	    104.87295830
      1.91666670	     -7.89457916	      4.57509529	     -1.29425168	      0.76634547	      0.91040835	      0.14292418	      7.83550443	      4.08715699	      1.08145842	      9.90951626	      0.17295369	      5.00423766	    -12.74127982	     -7.49999212	     19.30877289	      3.96930214	      4.23686915	     69.47246209	      1.21252320	     19.66418429	    -23.23359147	     -7.49999212	      5.38166065	     -2.29252453	     -5.60276473	     32.82618508	      5.48031039	     69.73898515	    119.79679656	    102.09663733	     38.49300088	      0.33905899	     61.52484356	    123.61652199	    108.26207532
      1.93333330	     -8.43780222	      4.42537352	     -1.20943596	      0.76692903	      0.90769471	      0.14282267	      8.57314622	      4.23916617	      0.73584400	     10.13792137	      0.17694011	      5.66749501	    -12.37142526	     -7.49999298	     19.81787160	      3.75577361	      4.14705931	     69.54385264	      1.21376920	     19.57710095	    -23.24084001	     -7.49999298	      6.25280471	     -2.16763118	     -5.46979735	     32.50564899	      5.29232426	     69.47241345	    119.53787218	    100.07077545	     38.25011009	      0.63251172	     61.63031726	    123.48104850	    106.27086326
      1.95000000	     -8.19906757	      4.23473322	     -1.22353012	      0.76664452	      0.91021475	      0.14272215	      8.46136051	      4.45813291	      0.62254799	     10.20430471	      0.17809872	      5.62739641	    -12.91197085	     -7.49999313	     19.55577870	      3.48056326	      4.10332201	     69.66658802	      1.21591134	     19.75841379	    -23.16941886	     -7.49999313	      5.71285559	     -1.95728452	     -5.41888231	     32.63273652	      5.20647573	     69.82016873	    119.57699375	    102.56778734	     38.31274562	      0.70579057	     61.54236418	    123.78146854	    108.34759196
      1.96666670	     -8.10817297	      4.18256856	     -1.33588507	      0.76666486	      0.91061061	      0.14274551	      8.45138513	      4.51218500	      0.32880656	     10.11145137	      0.17647812	      5.66961271	    -12.83288176	     -7.49999558	     19.88941526	      3.29135077	      3.99079402	     70.14875439	      1.22432673	     19.76792402	    -23.12309904	     -7.49999558	      5.40231461	     -1.89744773	     -5.41433433	     32.72467502	      5.14306993	     69.99897071	    119.33388988	    102.47307553	     38.55446000	      0.75738571	     61.77591800	    123.75759604	    108.69434747
      1.98333330	     -8.00777045	      4.16312578	     -1.45862331	      0.76609545	      0.90757215	      0.14322468	      8.43259002	      4.52144636	      0.09564892	     10.03309773	      0.17511059	      5.67966226	    -12.92854688	     -7.49999717	     20.39097205	      3.18555668	      3.92904833	     70.75649596	      1.23493382	     20.09863385	    -23.01682554	     -7.49999717	      5.13505536	     -1.90917482	     -5.40522916	     33.40610468	      5.24806328	     70.41689186	    119.61128499	    102.73509407	     38.97991477	      0.86961483	     61.78932207	    123.89095030	    108.37359924
      2.00000000	     -7.59390866	      4.09263953	     -1.45439109	      0.76560566	      0.90839792	      0.14297361	      7.91570668	      4.53412056	     -0.30139402	      9.73959956	      0.16998808	      5.69899490	    -12.76772061	     -7.49999790	     20.41022365	      3.05037074	      3.95234597	     70.93228196	      1.23800187	     20.06077934	    -22.86969770	     -7.49999790	      4.61391921	     -1.94454547	     -5.38263560	     33.93997374	      5.06312059	     69.67536280	    118.98781827	    102.40264602	     39.09043446	      0.88624693	     61.87298656	    123.70331902	    108.33173947
      2.01666670	     -7.34668814	      3.96528747	     -1.59981146	      0.76497022	      0.90312341	      0.14324413	      7.64954353	      4.68468649	     -0.37774329	      9.51119103	      0.16600160	      5.52377190	    -12.94928215	     -7.49999816	     20.82577525	      2.84694279	      3.90055548	     71.58726435	      1.24943347	     19.95092588	    -22.82715663	     -7.49999816	      4.44994773	     -1.95114048	     -5.43935217	     34.61172683	      5.23050765	     69.02295853	    118.80848594	    101.44429961	     39.35906905	      1.03282588	     61.48753551	    123.65443320	    107.03902289
